<svg width="20" height="20" viewBox="0 0 20 20" fill="none" xmlns="http://www.w3.org/2000/svg">
<path d="M2 0H18C18.5304 0 19.0391 0.210714 19.4142 0.585786C19.7893 0.960859 20 1.46957 20 2V14C20 15.11 19.11 16 18 16H14L10 20L6 16H2C1.46957 16 0.960859 15.7893 0.585786 15.4142C0.210714 15.0391 0 14.5304 0 14V2C0 0.9 0.9 0 2 0ZM2 2V14H6.83L10 17.17L13.17 14H18V2H2ZM13.84 6.2L12.83 7.21L10.76 5.18L11.77 4.16C11.97 3.95 12.31 3.94 12.55 4.16L13.84 5.41C14.05 5.62 14.06 5.96 13.84 6.2ZM6 9.91L10.17 5.72L12.24 7.8L8.08 12H6V9.91Z" fill="white"/>
</svg>
