<svg width="106" height="39" viewBox="0 0 106 39" fill="none" xmlns="http://www.w3.org/2000/svg">
<path d="M0.428281 0.319998H8.02828V30H0.428281V0.319998ZM28.8473 30.36C26.5273 30.36 24.434 29.88 22.5673 28.92C20.7007 27.96 19.234 26.6267 18.1673 24.92C17.1273 23.2133 16.6073 21.28 16.6073 19.12C16.6073 16.9867 17.1273 15.0667 18.1673 13.36C19.234 11.6533 20.6873 10.3333 22.5273 9.4C24.394 8.44 26.5007 7.96 28.8473 7.96C31.194 7.96 33.3007 8.44 35.1673 9.4C37.034 10.3333 38.4873 11.6533 39.5273 13.36C40.5673 15.04 41.0873 16.96 41.0873 19.12C41.0873 21.28 40.5673 23.2133 39.5273 24.92C38.4873 26.6267 37.034 27.96 35.1673 28.92C33.3007 29.88 31.194 30.36 28.8473 30.36ZM28.8473 24.32C30.1807 24.32 31.274 23.8667 32.1273 22.96C32.9807 22.0267 33.4073 20.7467 33.4073 19.12C33.4073 17.52 32.9807 16.2667 32.1273 15.36C31.274 14.4533 30.1807 14 28.8473 14C27.514 14 26.4207 14.4533 25.5673 15.36C24.714 16.2667 24.2873 17.52 24.2873 19.12C24.2873 20.7467 24.714 22.0267 25.5673 22.96C26.4207 23.8667 27.514 24.32 28.8473 24.32Z" fill="white"/>
<path d="M72.928 8.32V26.04C72.928 30.0667 71.8346 33.08 69.648 35.08C67.4613 37.1067 64.3146 38.12 60.208 38.12C58.0746 38.12 56.0746 37.88 54.208 37.4C52.3413 36.92 50.7546 36.2133 49.448 35.28L52.208 29.96C53.088 30.68 54.1946 31.24 55.528 31.64C56.888 32.0667 58.2213 32.28 59.528 32.28C61.528 32.28 62.9946 31.84 63.928 30.96C64.8613 30.08 65.328 28.7733 65.328 27.04V26.32C63.8613 28.0267 61.7146 28.88 58.888 28.88C56.968 28.88 55.1946 28.4533 53.568 27.6C51.9413 26.72 50.648 25.4933 49.688 23.92C48.728 22.32 48.248 20.48 48.248 18.4C48.248 16.3467 48.728 14.5333 49.688 12.96C50.648 11.36 51.9413 10.1333 53.568 9.28C55.1946 8.4 56.968 7.96 58.888 7.96C61.9813 7.96 64.248 8.96 65.688 10.96V8.32H72.928ZM60.688 22.84C62.048 22.84 63.168 22.4267 64.048 21.6C64.9546 20.7733 65.408 19.7067 65.408 18.4C65.408 17.0933 64.968 16.04 64.088 15.24C63.208 14.4133 62.0746 14 60.688 14C59.3013 14 58.1546 14.4133 57.248 15.24C56.368 16.04 55.928 17.0933 55.928 18.4C55.928 19.7067 56.3813 20.7733 57.288 21.6C58.1946 22.4267 59.328 22.84 60.688 22.84ZM93.6911 30.36C91.3711 30.36 89.2778 29.88 87.4111 28.92C85.5444 27.96 84.0778 26.6267 83.0111 24.92C81.9711 23.2133 81.4511 21.28 81.4511 19.12C81.4511 16.9867 81.9711 15.0667 83.0111 13.36C84.0778 11.6533 85.5311 10.3333 87.3711 9.4C89.2378 8.44 91.3444 7.96 93.6911 7.96C96.0378 7.96 98.1444 8.44 100.011 9.4C101.878 10.3333 103.331 11.6533 104.371 13.36C105.411 15.04 105.931 16.96 105.931 19.12C105.931 21.28 105.411 23.2133 104.371 24.92C103.331 26.6267 101.878 27.96 100.011 28.92C98.1444 29.88 96.0378 30.36 93.6911 30.36ZM93.6911 24.32C95.0244 24.32 96.1178 23.8667 96.9711 22.96C97.8244 22.0267 98.2511 20.7467 98.2511 19.12C98.2511 17.52 97.8244 16.2667 96.9711 15.36C96.1178 14.4533 95.0244 14 93.6911 14C92.3578 14 91.2644 14.4533 90.4111 15.36C89.5578 16.2667 89.1311 17.52 89.1311 19.12C89.1311 20.7467 89.5578 22.0267 90.4111 22.96C91.2644 23.8667 92.3578 24.32 93.6911 24.32Z" fill="#D5A629"/>
</svg>
