<svg width="25" height="25" viewBox="0 0 25 25" fill="none" xmlns="http://www.w3.org/2000/svg">
<path d="M21.875 9.37504H15.625V22.9167H13.5417V16.6667H11.4583V22.9167H9.375V9.37504H3.125V7.29171H21.875V9.37504ZM12.5 2.08337C13.0525 2.08337 13.5824 2.30287 13.9731 2.69357C14.3638 3.08427 14.5833 3.61417 14.5833 4.16671C14.5833 4.71924 14.3638 5.24915 13.9731 5.63985C13.5824 6.03055 13.0525 6.25004 12.5 6.25004C11.9475 6.25004 11.4176 6.03055 11.0269 5.63985C10.6362 5.24915 10.4167 4.71924 10.4167 4.16671C10.4167 3.01046 11.3438 2.08337 12.5 2.08337Z" fill="white"/>
</svg>
